<?xml version="1.0" encoding="UTF-8" standalone="no"?>
<!-- Created with Inkscape (http://www.inkscape.org/) -->

<svg
   xmlns:dc="http://purl.org/dc/elements/1.1/"
   xmlns:cc="http://creativecommons.org/ns#"
   xmlns:rdf="http://www.w3.org/1999/02/22-rdf-syntax-ns#"
   xmlns:svg="http://www.w3.org/2000/svg"
   xmlns="http://www.w3.org/2000/svg"
   xmlns:sodipodi="http://sodipodi.sourceforge.net/DTD/sodipodi-0.dtd"
   xmlns:inkscape="http://www.inkscape.org/namespaces/inkscape"
   id="svg3188"
   version="1.1"
   inkscape:version="0.48.4 r9939"
   width="15"
   height="22"
   sodipodi:docname="glyphicons_223_chevron-right.svg">
  <metadata
     id="metadata3194">
    <rdf:RDF>
      <cc:Work
         rdf:about="">
        <dc:format>image/svg+xml</dc:format>
        <dc:type
           rdf:resource="http://purl.org/dc/dcmitype/StillImage" />
        <dc:title />
      </cc:Work>
    </rdf:RDF>
  </metadata>
  <defs
     id="defs3192" />
  <sodipodi:namedview
     pagecolor="#ffffff"
     bordercolor="#666666"
     borderopacity="1"
     objecttolerance="10"
     gridtolerance="10"
     guidetolerance="10"
     inkscape:pageopacity="0"
     inkscape:pageshadow="2"
     inkscape:window-width="1306"
     inkscape:window-height="747"
     id="namedview3190"
     showgrid="false"
     inkscape:zoom="10.727273"
     inkscape:cx="7.5000002"
     inkscape:cy="3.5423732"
     inkscape:window-x="60"
     inkscape:window-y="21"
     inkscape:window-maximized="1"
     inkscape:current-layer="svg3188" />
  <path
     style="fill:none;stroke:#000000;stroke-width:1px;stroke-linecap:butt;stroke-linejoin:miter;stroke-opacity:1"
     d="M 3.5423729,0.46610169 13.516949,11 3.6355932,21.533898 0.18644068,18.084746 6.6186441,11.279661 0.27966102,4.2881356 z"
     id="path3198"
     inkscape:connector-curvature="0" />
  <path
     d="M 2.2524197,19.371912 0.95055729,18.067554 1.5180083,17.4842 C 3.3937961,15.555846 7.3360112,11.320347 7.3129683,11.25812 7.2979121,11.217461 5.8907841,9.6457115 4.1860171,7.7653429 2.4812502,5.8849743 1.0864409,4.3158201 1.0864409,4.2783336 c 0,-0.088221 2.4323513,-2.949841 2.4913409,-2.9310205 0.024587,0.00784 2.0984565,2.1827437 4.6085992,4.8331094 l 4.563896,4.8188465 -0.497249,0.52706 c -0.273486,0.289884 -2.3149217,2.467209 -4.5365235,4.838501 -2.2216017,2.371293 -4.0669388,4.311441 -4.1007492,4.311441 -0.03381,0 -0.6473113,-0.586962 -1.3633356,-1.304359 l 0,0 z"
     id="path2982"
     inkscape:connector-curvature="0" />
</svg>
